<svg width="852" height="299" viewBox="0 0 852 299" fill="none" xmlns="http://www.w3.org/2000/svg">
<path d="M55.6436 240.238V109.786C55.6436 98.3744 61.8752 89.0373 69.4912 89.0373L825.474 64.6257C826.328 64.5487 837.974 63.7117 845.1 73.7327C849.329 79.6797 849.554 87.0145 849.305 91.9475C848.372 110.378 837.781 176.41 821.268 264.984C819.737 271.494 816.695 277.553 812.389 282.671C809.165 286.18 805.363 289.111 801.149 291.336C784.627 299.712 187.576 292.511 92.5088 291.336" stroke="#196295" stroke-width="4" stroke-miterlimit="10"/>
<path d="M75.2946 110.58C76.589 115.044 76.0931 119.352 73.8072 123.505C71.5944 127.637 68.0367 130.414 63.1341 131.836C56.9145 133.639 51.0805 132.396 45.6322 128.106C40.1626 123.742 36.4518 118.195 34.4997 111.463C32.5264 104.658 32.3389 96.8988 33.9371 88.1855C35.5142 79.399 37.7055 72.4572 40.511 67.3601C43.3897 62.2418 45.3778 59.5235 46.4754 59.2052C47.2071 58.993 48.9984 59.4255 51.8491 60.5027L53.1377 60.8429C55.3277 61.5564 56.5288 62.279 56.741 63.0107C56.8895 63.5229 56.3791 65.4558 55.2098 68.8092C52.0654 78.2088 51.1509 85.177 52.4665 89.7137C53.4637 93.1528 57.0645 95.9956 63.2687 98.2421C69.5249 100.394 73.5335 104.507 75.2946 110.58ZM124.247 96.3851C125.541 100.849 125.046 105.157 122.76 109.31C120.474 113.463 116.916 116.24 112.087 117.641C105.867 119.444 100.033 118.201 94.5846 113.911C89.115 109.547 85.4042 104 83.4521 97.2679C80.6089 87.4628 81.2354 76.4928 85.3319 64.358C89.5015 52.202 92.8668 45.7527 95.4278 45.0101C96.1595 44.7979 97.9508 45.2304 100.802 46.3075L102.09 46.6478C104.28 47.3613 105.481 48.0839 105.693 48.8156C105.842 49.3278 105.332 51.2606 104.162 54.6141C100.945 64.0349 99.9936 71.0137 101.309 75.5504C102.306 78.9895 105.944 81.8217 112.221 84.047C118.477 86.1991 122.486 90.3118 124.247 96.3851Z" fill="#EE1B52"/>
</svg>
